<svg width="77" height="17" viewBox="0 0 77 17" fill="none" xmlns="http://www.w3.org/2000/svg">
<path d="M5.47363 16.1089L0.124023 0.382324H4.13086L6.63379 8.49268C6.86296 9.23031 7.16016 10.2472 7.52539 11.5435L7.7832 12.4351H7.82617C7.97656 11.8908 8.15918 11.2749 8.37402 10.5874L8.73926 9.43799L9.10449 8.27783L11.5859 0.382324H15.4531C12.8105 8.08089 11.0023 13.3231 10.0283 16.1089H5.47363ZM15.0771 10.3188C15.0628 9.18734 15.2884 8.15609 15.7539 7.2251C16.2266 6.28695 16.8962 5.54932 17.7627 5.01221C18.6364 4.4751 19.6175 4.2137 20.7061 4.22803C21.501 4.22803 22.2171 4.35335 22.8545 4.604C23.499 4.85465 24.0075 5.1984 24.3799 5.63525V4.56104H27.8604V16.1089H24.4443V14.8735H24.4229C24.0576 15.3175 23.5384 15.6828 22.8652 15.9692C22.1992 16.2557 21.4508 16.3989 20.6201 16.3989C19.5889 16.4204 18.6436 16.1626 17.7842 15.6255C16.9248 15.0812 16.2552 14.34 15.7754 13.4019C15.2956 12.4637 15.0628 11.436 15.0771 10.3188ZM24.4873 10.3403C24.4873 9.44515 24.2259 8.70752 23.7031 8.12744C23.1803 7.5402 22.4821 7.24658 21.6084 7.24658C20.7419 7.24658 20.0472 7.5402 19.5244 8.12744C19.0088 8.70752 18.751 9.44515 18.751 10.3403C18.751 11.257 19.0052 12.0018 19.5137 12.5747C20.0293 13.1405 20.7275 13.4233 21.6084 13.4233C22.4893 13.4233 23.1875 13.1405 23.7031 12.5747C24.2259 12.0018 24.4873 11.257 24.4873 10.3403ZM30.7285 16.1089V6.36572C30.7285 5.70687 30.7214 5.10531 30.707 4.56104H34.209V5.67822C35.0612 4.68278 36.2464 4.18506 37.7646 4.18506C39.1182 4.18506 40.1888 4.61117 40.9766 5.46338C41.7715 6.31559 42.1689 7.47933 42.1689 8.95459V16.1089H38.6025V9.72803C38.6025 8.97607 38.4163 8.36019 38.0439 7.88037C37.6644 7.39339 37.1344 7.1499 36.4541 7.1499C35.7666 7.1499 35.2331 7.37549 34.8535 7.82666C34.4811 8.27067 34.2949 8.80778 34.2949 9.43799V16.1089H30.7285ZM44.6719 1.98291C44.6719 1.42432 44.8652 0.962402 45.252 0.597168C45.6387 0.231934 46.1257 0.0493164 46.7129 0.0493164C47.3001 0.0493164 47.7871 0.235514 48.1738 0.60791C48.5605 0.973145 48.7539 1.43148 48.7539 1.98291C48.7539 2.55583 48.5605 3.0249 48.1738 3.39014C47.7871 3.75537 47.3001 3.93799 46.7129 3.93799C46.1257 3.93799 45.6387 3.75537 45.252 3.39014C44.8652 3.0249 44.6719 2.55583 44.6719 1.98291ZM44.9297 16.1089V4.56104H48.5391V16.1089H44.9297ZM51.3965 16.1089V0.382324H55.0059V16.1089H51.3965ZM57.8633 16.1089V0.382324H61.4727V16.1089H57.8633ZM63.6533 10.3188C63.639 9.18734 63.8646 8.15609 64.3301 7.2251C64.8027 6.28695 65.4723 5.54932 66.3389 5.01221C67.2126 4.4751 68.1937 4.2137 69.2822 4.22803C70.0771 4.22803 70.7933 4.35335 71.4307 4.604C72.0752 4.85465 72.5837 5.1984 72.9561 5.63525V4.56104H76.4365V16.1089H73.0205V14.8735H72.999C72.6338 15.3175 72.1146 15.6828 71.4414 15.9692C70.7754 16.2557 70.027 16.3989 69.1963 16.3989C68.165 16.4204 67.2197 16.1626 66.3604 15.6255C65.501 15.0812 64.8314 14.34 64.3516 13.4019C63.8717 12.4637 63.639 11.436 63.6533 10.3188ZM73.0635 10.3403C73.0635 9.44515 72.8021 8.70752 72.2793 8.12744C71.7565 7.5402 71.0583 7.24658 70.1846 7.24658C69.318 7.24658 68.6234 7.5402 68.1006 8.12744C67.585 8.70752 67.3271 9.44515 67.3271 10.3403C67.3271 11.257 67.5814 12.0018 68.0898 12.5747C68.6055 13.1405 69.3037 13.4233 70.1846 13.4233C71.0654 13.4233 71.7637 13.1405 72.2793 12.5747C72.8021 12.0018 73.0635 11.257 73.0635 10.3403Z" fill="#010101"/>
</svg>
